# xmcd CD database file
#
# Track frame offsets:
#	150
#	19232
#	24316
#	36649
#	44268
#	54404
#	68224
#
# Disc length: 1141 seconds
#
# Revision: 0
# Processed by: cddbd v1.4PL0 Copyright (c) Steve Scherf et al.
# Submitted via: CDex 1.50
#
DISCID=5a047307
DTITLE=subtlerage - Turning
DYEAR=2003
DGENRE=New Age
TTITLE0=Wide Open
TTITLE1=Reaching
TTITLE2=You
TTITLE3=Things Unsaid
TTITLE4=Turning
TTITLE5=Nut Brown Ale, 3 AM
TTITLE6=Bound
EXTD=YEAR: 2003
EXTT0=
EXTT1=
EXTT2=
EXTT3=
EXTT4=
EXTT5=
EXTT6=
PLAYORDER=
